<mxfile host="app.diagrams.net" modified="2023-10-17T19:03:24.865Z" agent="Mozilla/5.0 (Windows NT 10.0; Win64; x64) AppleWebKit/537.36 (KHTML, like Gecko) Chrome/118.0.0.0 Safari/537.36" etag="QURP7mJMOsWnBqY7LjL6" version="22.0.4" type="github">
  <diagram name="PÃ¡gina-1" id="v-V9oNwEjG7eebgQW-Xe">
    <mxGraphModel dx="880" dy="470" grid="1" gridSize="10" guides="1" tooltips="1" connect="1" arrows="1" fold="1" page="1" pageScale="1" pageWidth="827" pageHeight="1169" math="0" shadow="0">
      <root>
        <mxCell id="0" />
        <mxCell id="1" parent="0" />
        <mxCell id="W5QlOuMWTS-Rrt4L4QIO-1" value="Usuario" style="shape=umlLifeline;perimeter=lifelinePerimeter;whiteSpace=wrap;html=1;container=1;dropTarget=0;collapsible=0;recursiveResize=0;outlineConnect=0;portConstraint=eastwest;newEdgeStyle={&quot;curved&quot;:0,&quot;rounded&quot;:0};" vertex="1" parent="1">
          <mxGeometry x="20" y="40" width="105" height="440" as="geometry" />
        </mxCell>
        <mxCell id="W5QlOuMWTS-Rrt4L4QIO-7" value="" style="html=1;points=[[0,0,0,0,5],[0,1,0,0,-5],[1,0,0,0,5],[1,1,0,0,-5]];perimeter=orthogonalPerimeter;outlineConnect=0;targetShapes=umlLifeline;portConstraint=eastwest;newEdgeStyle={&quot;curved&quot;:0,&quot;rounded&quot;:0};" vertex="1" parent="W5QlOuMWTS-Rrt4L4QIO-1">
          <mxGeometry x="45" y="50" width="10" height="360" as="geometry" />
        </mxCell>
        <mxCell id="W5QlOuMWTS-Rrt4L4QIO-19" value="" style="html=1;points=[[0,0,0,0,5],[0,1,0,0,-5],[1,0,0,0,5],[1,1,0,0,-5]];perimeter=orthogonalPerimeter;outlineConnect=0;targetShapes=umlLifeline;portConstraint=eastwest;newEdgeStyle={&quot;curved&quot;:0,&quot;rounded&quot;:0};" vertex="1" parent="W5QlOuMWTS-Rrt4L4QIO-1">
          <mxGeometry x="40" y="180" width="25" height="30" as="geometry" />
        </mxCell>
        <mxCell id="W5QlOuMWTS-Rrt4L4QIO-2" value="Sistema" style="shape=umlLifeline;perimeter=lifelinePerimeter;whiteSpace=wrap;html=1;container=1;dropTarget=0;collapsible=0;recursiveResize=0;outlineConnect=0;portConstraint=eastwest;newEdgeStyle={&quot;curved&quot;:0,&quot;rounded&quot;:0};" vertex="1" parent="1">
          <mxGeometry x="210" y="40" width="100" height="440" as="geometry" />
        </mxCell>
        <mxCell id="W5QlOuMWTS-Rrt4L4QIO-8" value="" style="html=1;points=[[0,0,0,0,5],[0,1,0,0,-5],[1,0,0,0,5],[1,1,0,0,-5]];perimeter=orthogonalPerimeter;outlineConnect=0;targetShapes=umlLifeline;portConstraint=eastwest;newEdgeStyle={&quot;curved&quot;:0,&quot;rounded&quot;:0};" vertex="1" parent="W5QlOuMWTS-Rrt4L4QIO-2">
          <mxGeometry x="45" y="50" width="10" height="80" as="geometry" />
        </mxCell>
        <mxCell id="W5QlOuMWTS-Rrt4L4QIO-3" value="EspacoDeFestas" style="shape=umlLifeline;perimeter=lifelinePerimeter;whiteSpace=wrap;html=1;container=1;dropTarget=0;collapsible=0;recursiveResize=0;outlineConnect=0;portConstraint=eastwest;newEdgeStyle={&quot;curved&quot;:0,&quot;rounded&quot;:0};" vertex="1" parent="1">
          <mxGeometry x="370" y="40" width="100" height="440" as="geometry" />
        </mxCell>
        <mxCell id="W5QlOuMWTS-Rrt4L4QIO-10" value="" style="html=1;points=[[0,0,0,0,5],[0,1,0,0,-5],[1,0,0,0,5],[1,1,0,0,-5]];perimeter=orthogonalPerimeter;outlineConnect=0;targetShapes=umlLifeline;portConstraint=eastwest;newEdgeStyle={&quot;curved&quot;:0,&quot;rounded&quot;:0};" vertex="1" parent="W5QlOuMWTS-Rrt4L4QIO-3">
          <mxGeometry x="45" y="50" width="10" height="80" as="geometry" />
        </mxCell>
        <mxCell id="W5QlOuMWTS-Rrt4L4QIO-14" value="" style="html=1;points=[[0,0,0,0,5],[0,1,0,0,-5],[1,0,0,0,5],[1,1,0,0,-5]];perimeter=orthogonalPerimeter;outlineConnect=0;targetShapes=umlLifeline;portConstraint=eastwest;newEdgeStyle={&quot;curved&quot;:0,&quot;rounded&quot;:0};" vertex="1" parent="W5QlOuMWTS-Rrt4L4QIO-3">
          <mxGeometry x="45" y="160" width="10" height="110" as="geometry" />
        </mxCell>
        <mxCell id="W5QlOuMWTS-Rrt4L4QIO-4" value="Calendario" style="shape=umlLifeline;perimeter=lifelinePerimeter;whiteSpace=wrap;html=1;container=1;dropTarget=0;collapsible=0;recursiveResize=0;outlineConnect=0;portConstraint=eastwest;newEdgeStyle={&quot;curved&quot;:0,&quot;rounded&quot;:0};" vertex="1" parent="1">
          <mxGeometry x="530" y="40" width="100" height="440" as="geometry" />
        </mxCell>
        <mxCell id="W5QlOuMWTS-Rrt4L4QIO-20" value="" style="html=1;points=[[0,0,0,0,5],[0,1,0,0,-5],[1,0,0,0,5],[1,1,0,0,-5]];perimeter=orthogonalPerimeter;outlineConnect=0;targetShapes=umlLifeline;portConstraint=eastwest;newEdgeStyle={&quot;curved&quot;:0,&quot;rounded&quot;:0};" vertex="1" parent="W5QlOuMWTS-Rrt4L4QIO-4">
          <mxGeometry x="42.5" y="230" width="15" height="30" as="geometry" />
        </mxCell>
        <mxCell id="W5QlOuMWTS-Rrt4L4QIO-5" value="Notificacao" style="shape=umlLifeline;perimeter=lifelinePerimeter;whiteSpace=wrap;html=1;container=1;dropTarget=0;collapsible=0;recursiveResize=0;outlineConnect=0;portConstraint=eastwest;newEdgeStyle={&quot;curved&quot;:0,&quot;rounded&quot;:0};" vertex="1" parent="1">
          <mxGeometry x="700" y="40" width="100" height="440" as="geometry" />
        </mxCell>
        <mxCell id="W5QlOuMWTS-Rrt4L4QIO-26" value="" style="html=1;points=[[0,0,0,0,5],[0,1,0,0,-5],[1,0,0,0,5],[1,1,0,0,-5]];perimeter=orthogonalPerimeter;outlineConnect=0;targetShapes=umlLifeline;portConstraint=eastwest;newEdgeStyle={&quot;curved&quot;:0,&quot;rounded&quot;:0};" vertex="1" parent="W5QlOuMWTS-Rrt4L4QIO-5">
          <mxGeometry x="45" y="300" width="10" height="60" as="geometry" />
        </mxCell>
        <mxCell id="W5QlOuMWTS-Rrt4L4QIO-6" value="SolicitacaoDeReserva" style="html=1;verticalAlign=bottom;endArrow=block;curved=0;rounded=0;exitX=1;exitY=0;exitDx=0;exitDy=5;exitPerimeter=0;entryX=0;entryY=0;entryDx=0;entryDy=5;entryPerimeter=0;" edge="1" parent="1" source="W5QlOuMWTS-Rrt4L4QIO-7" target="W5QlOuMWTS-Rrt4L4QIO-8">
          <mxGeometry width="80" relative="1" as="geometry">
            <mxPoint x="370" y="280" as="sourcePoint" />
            <mxPoint x="450" y="280" as="targetPoint" />
          </mxGeometry>
        </mxCell>
        <mxCell id="W5QlOuMWTS-Rrt4L4QIO-9" value="VerificarDisponibilidade" style="html=1;verticalAlign=bottom;endArrow=block;curved=0;rounded=0;exitX=1.4;exitY=0.25;exitDx=0;exitDy=0;exitPerimeter=0;entryX=0.5;entryY=0.25;entryDx=0;entryDy=0;entryPerimeter=0;" edge="1" parent="1" source="W5QlOuMWTS-Rrt4L4QIO-8" target="W5QlOuMWTS-Rrt4L4QIO-10">
          <mxGeometry width="80" relative="1" as="geometry">
            <mxPoint x="370" y="270" as="sourcePoint" />
            <mxPoint x="450" y="270" as="targetPoint" />
          </mxGeometry>
        </mxCell>
        <mxCell id="W5QlOuMWTS-Rrt4L4QIO-12" value="EspacoDisponivel" style="html=1;verticalAlign=bottom;endArrow=block;curved=0;rounded=0;exitX=-0.3;exitY=0.688;exitDx=0;exitDy=0;exitPerimeter=0;entryX=1;entryY=0.688;entryDx=0;entryDy=0;entryPerimeter=0;" edge="1" parent="1" source="W5QlOuMWTS-Rrt4L4QIO-10" target="W5QlOuMWTS-Rrt4L4QIO-8">
          <mxGeometry x="-0.0204" y="25" width="80" relative="1" as="geometry">
            <mxPoint x="370" y="270" as="sourcePoint" />
            <mxPoint x="290" y="145" as="targetPoint" />
            <mxPoint as="offset" />
          </mxGeometry>
        </mxCell>
        <mxCell id="W5QlOuMWTS-Rrt4L4QIO-13" value="" style="html=1;verticalAlign=bottom;endArrow=block;curved=0;rounded=0;entryX=1;entryY=0.197;entryDx=0;entryDy=0;entryPerimeter=0;exitX=0.2;exitY=0.863;exitDx=0;exitDy=0;exitPerimeter=0;" edge="1" parent="1" source="W5QlOuMWTS-Rrt4L4QIO-8" target="W5QlOuMWTS-Rrt4L4QIO-7">
          <mxGeometry width="80" relative="1" as="geometry">
            <mxPoint x="370" y="270" as="sourcePoint" />
            <mxPoint x="450" y="270" as="targetPoint" />
          </mxGeometry>
        </mxCell>
        <mxCell id="W5QlOuMWTS-Rrt4L4QIO-15" value="DetalhesDaReserva" style="html=1;verticalAlign=bottom;endArrow=block;curved=0;rounded=0;exitX=1.2;exitY=0.303;exitDx=0;exitDy=0;exitPerimeter=0;entryX=-0.2;entryY=-0.025;entryDx=0;entryDy=0;entryPerimeter=0;" edge="1" parent="1" source="W5QlOuMWTS-Rrt4L4QIO-7" target="W5QlOuMWTS-Rrt4L4QIO-14">
          <mxGeometry width="80" relative="1" as="geometry">
            <mxPoint x="370" y="270" as="sourcePoint" />
            <mxPoint x="410" y="200" as="targetPoint" />
          </mxGeometry>
        </mxCell>
        <mxCell id="W5QlOuMWTS-Rrt4L4QIO-16" value="DetalhesNecessario" style="html=1;verticalAlign=bottom;endArrow=block;curved=0;rounded=0;exitX=0.2;exitY=0.2;exitDx=0;exitDy=0;exitPerimeter=0;entryX=1;entryY=0;entryDx=0;entryDy=5;entryPerimeter=0;" edge="1" parent="1" source="W5QlOuMWTS-Rrt4L4QIO-14" target="W5QlOuMWTS-Rrt4L4QIO-19">
          <mxGeometry x="-0.2662" y="-1" width="80" relative="1" as="geometry">
            <mxPoint x="370" y="270" as="sourcePoint" />
            <mxPoint x="150" y="228" as="targetPoint" />
            <mxPoint as="offset" />
          </mxGeometry>
        </mxCell>
        <mxCell id="W5QlOuMWTS-Rrt4L4QIO-17" value="ReservarData" style="html=1;verticalAlign=bottom;endArrow=block;curved=0;rounded=0;exitX=1;exitY=1;exitDx=0;exitDy=-5;exitPerimeter=0;entryX=0;entryY=0.409;entryDx=0;entryDy=0;entryPerimeter=0;" edge="1" parent="1" source="W5QlOuMWTS-Rrt4L4QIO-19" target="W5QlOuMWTS-Rrt4L4QIO-14">
          <mxGeometry x="-0.2424" y="-25" width="80" relative="1" as="geometry">
            <mxPoint x="130" y="250" as="sourcePoint" />
            <mxPoint x="350" y="250" as="targetPoint" />
            <mxPoint as="offset" />
          </mxGeometry>
        </mxCell>
        <mxCell id="W5QlOuMWTS-Rrt4L4QIO-18" value="AdicionarReserva" style="html=1;verticalAlign=bottom;endArrow=block;curved=0;rounded=0;exitX=1;exitY=0.664;exitDx=0;exitDy=0;exitPerimeter=0;entryX=0;entryY=0;entryDx=0;entryDy=5;entryPerimeter=0;" edge="1" parent="1" source="W5QlOuMWTS-Rrt4L4QIO-14" target="W5QlOuMWTS-Rrt4L4QIO-20">
          <mxGeometry width="80" relative="1" as="geometry">
            <mxPoint x="427" y="269.99999999999994" as="sourcePoint" />
            <mxPoint x="572.5" y="269.99999999999994" as="targetPoint" />
          </mxGeometry>
        </mxCell>
        <mxCell id="W5QlOuMWTS-Rrt4L4QIO-21" value="ReservaAdicionada" style="html=1;verticalAlign=bottom;endArrow=block;curved=0;rounded=0;exitX=0;exitY=1;exitDx=0;exitDy=-5;exitPerimeter=0;entryX=1.2;entryY=0.864;entryDx=0;entryDy=0;entryPerimeter=0;" edge="1" parent="1" source="W5QlOuMWTS-Rrt4L4QIO-20" target="W5QlOuMWTS-Rrt4L4QIO-14">
          <mxGeometry width="80" relative="1" as="geometry">
            <mxPoint x="370" y="270" as="sourcePoint" />
            <mxPoint x="450" y="295" as="targetPoint" />
          </mxGeometry>
        </mxCell>
        <mxCell id="W5QlOuMWTS-Rrt4L4QIO-24" value="EnviarNotificacaoDeConfirmacao" style="html=1;verticalAlign=bottom;endArrow=block;curved=0;rounded=0;entryX=1.3;entryY=0.597;entryDx=0;entryDy=0;entryPerimeter=0;exitX=0;exitY=1;exitDx=0;exitDy=-5;exitPerimeter=0;" edge="1" parent="1" source="W5QlOuMWTS-Rrt4L4QIO-14" target="W5QlOuMWTS-Rrt4L4QIO-7">
          <mxGeometry width="80" relative="1" as="geometry">
            <mxPoint x="360" y="340" as="sourcePoint" />
            <mxPoint x="450" y="280" as="targetPoint" />
          </mxGeometry>
        </mxCell>
        <mxCell id="W5QlOuMWTS-Rrt4L4QIO-25" value="EnvioDeConfirmacaoDeNotificacao" style="html=1;verticalAlign=bottom;endArrow=block;curved=0;rounded=0;exitX=1.2;exitY=0.75;exitDx=0;exitDy=0;exitPerimeter=0;" edge="1" parent="1" source="W5QlOuMWTS-Rrt4L4QIO-7" target="W5QlOuMWTS-Rrt4L4QIO-26">
          <mxGeometry width="80" relative="1" as="geometry">
            <mxPoint x="370" y="280" as="sourcePoint" />
            <mxPoint x="690" y="370" as="targetPoint" />
          </mxGeometry>
        </mxCell>
        <mxCell id="W5QlOuMWTS-Rrt4L4QIO-27" value="Confirmacaorealizada" style="html=1;verticalAlign=bottom;endArrow=block;curved=0;rounded=0;entryX=1.2;entryY=0.864;entryDx=0;entryDy=0;entryPerimeter=0;exitX=0;exitY=1;exitDx=0;exitDy=-5;exitPerimeter=0;" edge="1" parent="1" source="W5QlOuMWTS-Rrt4L4QIO-26" target="W5QlOuMWTS-Rrt4L4QIO-7">
          <mxGeometry width="80" relative="1" as="geometry">
            <mxPoint x="370" y="280" as="sourcePoint" />
            <mxPoint x="450" y="280" as="targetPoint" />
          </mxGeometry>
        </mxCell>
      </root>
    </mxGraphModel>
  </diagram>
</mxfile>
